<?xml version="1.0" encoding="iso-8859-1"?>
<!-- Generator: Adobe Illustrator 18.1.0, SVG Export Plug-In . SVG Version: 6.00 Build 0)  -->
<!DOCTYPE svg PUBLIC "-//W3C//DTD SVG 1.1//EN" "http://www.w3.org/Graphics/SVG/1.1/DTD/svg11.dtd">
<svg version="1.1" xmlns="http://www.w3.org/2000/svg" xmlns:xlink="http://www.w3.org/1999/xlink" x="0px" y="0px"
	 viewBox="0 0 512 512" style="enable-background:new 0 0 512 512;" xml:space="preserve">
<g id="facebook">
</g>
<g id="twitter" style="display:none;">
	<path style="display:inline;fill:#F27A22;" d="M512,97.209c-18.838,8.355-39.082,14.001-60.33,16.54
		c21.685-13,38.342-33.585,46.185-58.115c-20.297,12.039-42.778,20.78-66.705,25.49c-19.16-20.415-46.46-33.17-76.672-33.17
		c-58.01,0-105.044,47.03-105.044,105.04c0,8.233,0.929,16.25,2.72,23.939c-87.3-4.381-164.701-46.2-216.509-109.752
		c-9.042,15.514-14.222,33.558-14.222,52.809c0,36.444,18.544,68.595,46.73,87.432c-17.219-0.546-33.416-5.271-47.578-13.139
		c-0.01,0.439-0.01,0.877-0.01,1.321c0,50.894,36.209,93.347,84.261,103c-8.814,2.4-18.094,3.685-27.674,3.685
		c-6.769,0-13.349-0.66-19.764-1.885c13.368,41.73,52.16,72.102,98.126,72.947c-35.95,28.175-81.242,44.967-130.457,44.967
		c-8.479,0-16.84-0.497-25.058-1.47c46.486,29.805,101.701,47.197,161.021,47.197c193.211,0,298.868-160.062,298.868-298.872
		c0-4.554-0.102-9.084-0.305-13.59C480.11,136.774,497.917,118.274,512,97.209z"/>
</g>
<g id="linkedin" style="display:none;">
	<g style="display:inline;">
		<path style="fill:#F27A22;" d="M61.333,125.333h-0.667c-18,0-32.625-5.458-43.833-16.333S0,84.542,0,68.333
			C0,51.875,5.709,38.292,17.167,27.5S43.542,11.333,62,11.333c12.208,0,23,2.5,32.333,7.5s16.458,11.792,21.333,20.333
			c4.875,8.542,7.458,18.292,7.667,29.167c0,10.667-2.458,20.292-7.333,28.833c-4.875,8.542-12.125,15.375-21.667,20.5
			S73.792,125.333,61.333,125.333z M116.333,500.667h-110V170.333h110V500.667z M512,500.667H402.333V324
			c0-23.333-4.5-41.625-13.5-54.833c-9-13.208-23.042-19.833-42.167-19.833c-9.542,0-18.292,2.042-26.167,6.167
			c-7.875,4.125-14.167,9-18.833,14.667c-4.667,5.667-8.458,12.042-11.333,19.167c-2.458,6-3.667,15-3.667,27v184.333H177
			c0.875-199.542,0.875-309.667,0-330.333h109.667v47c2.458-3.792,4.833-7.208,7.167-10.333c2.333-3.125,5.292-6.625,8.833-10.5
			c3.542-3.875,7.167-7.333,10.833-10.333c3.667-3,8.125-6,13.333-9c5.208-3,10.667-5.542,16.333-7.667
			c5.667-2.125,12.167-3.792,19.5-5c7.333-1.208,15-1.833,23-1.833c18.208,0,34.958,3.042,50.167,9.167
			c15.208,6.125,28.542,15.125,40,27c11.458,11.875,20.333,27.458,26.667,46.667c6.333,19.208,9.5,41.167,9.5,65.833V500.667z"/>
	</g>
</g>
<g id="youtube" style="display:none;">
	<g id="Lozenge" style="display:inline;">
		<g>
			<path d="M506.887,153.632c0,0-5.003-35.282-20.354-50.82c-19.469-20.393-41.293-20.494-51.301-21.687
				c-71.647-5.179-179.121-5.179-179.121-5.179h-0.223c0,0-107.472,0-179.121,5.179c-10.009,1.194-31.824,1.295-51.301,21.687
				c-15.351,15.537-20.346,50.82-20.346,50.82S0,195.065,0,236.497v38.843c0,41.432,5.12,82.865,5.12,82.865
				s4.995,35.283,20.346,50.82c19.477,20.393,45.06,19.748,56.455,21.885C122.883,434.839,256,436.054,256,436.054
				s107.585-0.162,179.232-5.341c10.008-1.194,31.831-1.295,51.301-21.687c15.351-15.537,20.354-50.82,20.354-50.82
				S512,316.773,512,275.341v-38.843C512,195.065,506.887,153.632,506.887,153.632z M203.142,322.412l-0.023-143.858l138.345,72.18
				L203.142,322.412z"/>
		</g>
	</g>
</g>
<g id="mail" style="display:none;">
	<g style="display:inline;">
		<g>
			<path d="M0,128.389v256.164l128.001-128.069L0,128.389z M256.003,392.444L159.331,287.99L12.994,444.631h485.01L351.667,286.914
				L256.003,392.444z M510.801,67.369H0l256.003,254.2L510.801,67.369z M512,382.589l-0.07-253.071L384.004,256.485L512,382.589z"/>
		</g>
	</g>
</g>
<g id="print" style="display:none;">
	<g style="display:inline;">
		<path d="M85.333,21.333C85.333,9.551,94.872,0,106.666,0h192c5.641,0,11.076,2.257,15.076,6.257l106.667,106.667
			c4,4,6.257,9.422,6.257,15.076v170.667H384V149.333h-85.333c-11.794,0-21.333-9.551-21.333-21.333V42.666H128v256H85.333V21.333z"
			/>
		<path d="M469.333,320H42.667C19.179,320,0,339.192,0,362.667v106.667C0,492.808,19.179,512,42.667,512h426.666
			C492.794,512,512,492.808,512,469.333V362.667C512,339.192,492.794,320,469.333,320z M456,435.999
			c0,11.039-8.937,20.001-20.001,20.001H396c-11.064,0-20.001-8.962-20.001-20.001V396c0-11.039,8.937-20.001,20.001-20.001h39.999
			c11.064,0,20.001,8.962,20.001,20.001V435.999z"/>
	</g>
</g>
<g id="rss" style="display:none;">
	<g style="display:inline;">
		<path d="M68.987,375.451c37.547,0,67.956,30.457,67.956,68.004c0,37.544-30.409,67.953-67.956,67.953
			c-37.532,0-67.953-30.409-67.953-67.953C1.034,405.908,31.456,375.451,68.987,375.451z"/>
		<path d="M1.107,272.115c63.698,0,123.546,24.899,168.571,70.12c45.049,45.271,69.838,105.55,69.838,169.714h98.118
			c0-186.395-150.955-338.003-336.526-338.003V272.115z"/>
		<path d="M1.231,98.118c226.968,0,411.652,185.707,411.652,413.882h98.083c0-282.301-228.653-512-509.735-512V98.118z"/>
	</g>
</g>
<g id="play" style="display:none;">
	<path style="display:inline;" d="M178.494,16.272c-27.788-28.303-50.503-18.732-50.503,21.322v436.812
		c0,40.054,22.715,49.629,50.503,21.322l184.646-188.27c27.824-28.303,27.824-74.607,0-102.914L178.494,16.272z"/>
</g>
<g id="search">
	<path d="M29.973,429.531v-38.562c0-5.222,1.864-9.741,5.592-13.557c3.728-3.816,8.142-5.724,13.244-5.724h414.383
		c5.101,0,9.516,1.908,13.244,5.724c3.728,3.816,5.592,8.335,5.592,13.557v38.562c0,5.222-1.864,9.741-5.592,13.557
		c-3.728,3.816-8.142,5.724-13.244,5.724H48.808c-5.101,0-9.516-1.908-13.244-5.724C31.837,439.272,29.973,434.753,29.973,429.531z
		 M29.973,275.281v-38.562c0-5.222,1.864-9.741,5.592-13.557c3.728-3.816,8.142-5.724,13.244-5.724h414.383
		c5.101,0,9.516,1.908,13.244,5.724c3.728,3.816,5.592,8.335,5.592,13.557v38.562c0,5.222-1.864,9.741-5.592,13.557
		c-3.728,3.816-8.142,5.724-13.244,5.724H48.808c-5.101,0-9.516-1.908-13.244-5.724C31.837,285.022,29.973,280.503,29.973,275.281z
		 M29.973,121.032V82.469c0-5.222,1.864-9.741,5.592-13.557c3.728-3.816,8.142-5.724,13.244-5.724h414.383
		c5.101,0,9.516,1.908,13.244,5.724c3.728,3.816,5.592,8.335,5.592,13.557v38.562c0,5.222-1.864,9.741-5.592,13.557
		c-3.728,3.816-8.142,5.724-13.244,5.724H48.808c-5.101,0-9.516-1.908-13.244-5.724C31.837,130.773,29.973,126.254,29.973,121.032z"
		/>
</g>
</svg>
